PathFileType	4	(X/Y/Z)	C:\Users\Biomechanik\SynologyDrive\AlexP\Athlete_03\Athlete_3_25_03_31\Deadlift_bar_01\marker_experimental.trc
DataRate	CameraRate	NumFrames	NumMarkers	Units	OrigDataRate	OrigDataStartFrame	OrigNumFrames
200.000000	200.000000	4	55	mm	200.000000	915	1464
Frame#	Time	BL			BR			GLAB			RFHD			LFHD			C7			T6			SPINMOL			SPINM2			SPINM3			T12			BELTOL			BELT2			BELT3			SACROL			SACR2			SACR3			LTHOL			LTH2			LTH3			LSHAOL			LSHA2			LSHA3			LHEE			LTOE			LM5			RTHOL			RTH2			RTH3			RSHAOL			RSHA2			RSHA3			RHEE			RTOE			RM5			STRN			XIPH			LACR			LUAOL			LUA2			LUA3			LLAOL			LLA2			LLA3			LWRR			LWRU			RACR			RUAOL			RUA2			RUA3			RLAOL			RLA2			RLA3			RWRR			RWRU			
		X1	Y1	Z1	X2	Y2	Z2	X3	Y3	Z3	X4	Y4	Z4	X5	Y5	Z5	X6	Y6	Z6	X7	Y7	Z7	X8	Y8	Z8	X9	Y9	Z9	X10	Y10	Z10	X11	Y11	Z11	X12	Y12	Z12	X13	Y13	Z13	X14	Y14	Z14	X15	Y15	Z15	X16	Y16	Z16	X17	Y17	Z17	X18	Y18	Z18	X19	Y19	Z19	X20	Y20	Z20	X21	Y21	Z21	X22	Y22	Z22	X23	Y23	Z23	X24	Y24	Z24	X25	Y25	Z25	X26	Y26	Z26	X27	Y27	Z27	X28	Y28	Z28	X29	Y29	Z29	X30	Y30	Z30	X31	Y31	Z31	X32	Y32	Z32	X33	Y33	Z33	X34	Y34	Z34	X35	Y35	Z35	X36	Y36	Z36	X37	Y37	Z37	X38	Y38	Z38	X39	Y39	Z39	X40	Y40	Z40	X41	Y41	Z41	X42	Y42	Z42	X43	Y43	Z43	X44	Y44	Z44	X45	Y45	Z45	X46	Y46	Z46	X47	Y47	Z47	X48	Y48	Z48	X49	Y49	Z49	X50	Y50	Z50	X51	Y51	Z51	X52	Y52	Z52	X53	Y53	Z53	X54	Y54	Z54	X55	Y55	Z55	

916	4.575	354.4886474609375	419.5182495117189	-2228.476806640625	348.9375	413.9920349121094	-206.6008605957031	564.005126953125	1305.35986328125	-1195.088256835938	515.049072265625	1334.842041015625	-1133.209838867188	523.33544921875	1330.864135742188	-1268.408081054688	308.7116394042969	1202.538696289062	-1205.931396484375	188.1874542236328	1098.657836914062	-1209.96240234375	167.5521240234375	1078.624145507812	-1232.219970703125	157.6003570556641	1073.621826171875	-1183.211059570312	124.6488571166992	1029.473266601562	-1220.1298828125	97.80970764160156	990.7765502929689	-1218.841430664062	61.64810562133789	991.1119995117189	-1234.033325195312	59.33648300170898	988.1162109375001	-1183.814575195312	14.47152996063232	950.2601928710939	-1213.626953125	-62.00696182250977	877.5192871093751	-1241.426147460938	-61.64804840087891	873.3158569335939	-1190.269409179688	-94.48828887939453	823.8088378906251	-1219.3017578125	115.5635070800781	575.2812500000001	-1423.499755859375	116.5283584594727	500.5628356933595	-1397.643188476562	155.2232360839844	528.7034912109376	-1413.606201171875	215.7794952392578	305.8647460937501	-1430.034912109375	154.4138031005859	255.7674407958985	-1420.333374023438	203.3359527587891	246.0017700195313	-1420.871459960938	78.05187225341797	69.36950683593759	-1319.073852539062	294.0053100585938	47.87008285522469	-1331.623046875	242.1073303222656	29.48607444763192	-1431.239624023438	99.79868316650391	573.1113891601564	-1013.115966796875	177.307373046875	572.1470336914064	-992.59716796875	150.5135040283203	536.6481933593751	-1016.05419921875	204.3863677978516	326.4072875976563	-1001.489318847656	222.0897979736328	249.9593505859376	-1005.893371582031	177.8379821777344	270.5104370117188	-1013.126708984375	81.62712097167969	63.95862197875984	-1120.719970703125	293.2622680664062	47.43908691406256	-1097.50927734375	234.8443145751953	39.51705169677741	-1000.320556640625	421.2172546386719	1042.3564453125	-1208.077758789062	373.0568542480469	903.9798583984376	-1209.18212890625	367.146484375	1109.020385742188	-1378.2001953125	347.5401916503906	956.4509277343751	-1473.351318359375	333.2664184570312	896.0546875000001	-1494.81201171875	371.6486206054688	897.0186157226564	-1460.43408203125	337.4695129394531	688.0856323242189	-1502.576538085938	290.2895202636719	625.6746215820314	-1490.166137695312	338.7434692382812	626.6867675781251	-1501.53076171875	364.8818359375	522.9358520507814	-1503.226318359375	356.9810180664062	516.9907226562501	-1424.65869140625	372.7140502929688	1102.80126953125	-1045.9462890625	348.1626892089844	957.2250976562501	-957.9234008789061	368.6462707519531	895.0503540039064	-963.8449096679688	327.6300659179688	898.9973754882814	-932.037353515625	328.786865234375	677.7910766601564	-931.6976928710938	379.6068420410156	616.7509765625	-920.993408203125	330.4711608886719	614.7212524414064	-930.0801391601562	367.8700561523438	528.0438842773438	-925.8187866210938	344.7900695800781	506.2129821777344	-1000.6357421875	
917	4.58	354.6184692382812	422.6651916503907	-2228.526611328125	349.2335205078125	416.9383239746094	-206.667739868164	563.2508544921875	1309.30908203125	-1195.000732421875	514.2184448242188	1338.654663085938	-1133.105834960938	522.5081787109375	1334.719116210938	-1268.314331054688	308.2624816894531	1205.794311523438	-1205.863159179688	188.0104064941406	1101.570434570312	-1209.900390625	167.4111328125	1081.487182617188	-1232.16064453125	157.4637451171875	1076.450927734375	-1183.153686523438	124.6367111206055	1032.2060546875	-1220.076293945312	97.86507415771484	993.4203491210939	-1218.815063476562	61.71583938598633	993.6672363281251	-1234.012817382812	59.40018081665039	990.6633911132814	-1183.7900390625	14.56526470184326	952.7420043945314	-1213.638793945312	-61.45105361938477	879.9372558593751	-1241.458984375	-61.12242889404297	875.7406616210939	-1190.296508789062	-93.91889190673828	826.2194213867189	-1219.346557617188	115.1330413818359	576.9486694335939	-1423.406982421875	115.6731796264648	502.230438232422	-1397.51025390625	154.5359191894531	530.1102905273439	-1413.469116210938	214.9435424804688	306.2784729003907	-1429.976806640625	153.7390899658203	255.9793701171876	-1420.310913085938	202.6970977783203	246.3508605957032	-1420.802978515625	78.0357666015625	69.37168121337899	-1319.097778320312	293.9984741210938	47.87290573120125	-1331.629638671875	242.1082763671875	29.48973274230966	-1431.238037109375	99.31990814208984	574.7792358398439	-1013.204711914062	176.799072265625	573.3003540039064	-992.6143188476562	149.8043060302734	537.9962158203126	-1016.122192382812	203.5365600585938	326.6834716796876	-1001.452331542969	221.4122467041016	250.330062866211	-1005.8671875	177.0874938964844	270.7803955078126	-1013.075744628906	81.61566162109375	63.95862960815437	-1120.70361328125	293.2572937011719	47.44393920898444	-1097.50146484375	234.8457794189453	39.51945495605475	-1000.3193359375	421.1571350097656	1045.898803710938	-1208.01025390625	373.3980102539062	907.3766479492189	-1209.141967773438	366.9023742675781	1112.387817382812	-1378.17236328125	347.3972778320312	959.6730346679689	-1473.372924804688	333.16748046875	899.2691650390626	-1494.80712890625	371.58740234375	900.2501220703126	-1460.442626953125	337.4360961914062	691.2872314453126	-1502.547485351562	290.2757568359375	628.8609619140626	-1490.139282226562	338.7323608398438	629.8806762695314	-1501.504516601562	364.9110107421875	526.1564941406251	-1503.208740234375	357.010498046875	520.1697998046876	-1424.6435546875	372.4893798828125	1106.136840820312	-1045.820190429688	348.014404296875	960.3895874023439	-957.8014526367186	368.5684204101562	898.2350463867189	-963.7335205078125	327.4914855957031	902.1294555664064	-931.9361572265625	328.794189453125	680.9146118164064	-931.7323608398438	379.6202087402344	619.8551025390625	-921.0689086914062	330.4971923828125	617.8401489257814	-930.1535034179688	367.9366760253906	531.185546875	-925.9210815429688	345.0508117675781	509.3880310058594	-1000.645324707031	
918	4.585	354.7672424316406	425.843963623047	-2228.57470703125	349.5455017089844	419.927001953125	-206.7344665527343	562.4694213867188	1313.3046875	-1194.909301757812	513.356689453125	1342.507080078125	-1132.999145507812	521.6524047851562	1338.615356445312	-1268.217163085938	307.7997436523438	1209.076171875	-1205.794189453125	187.8245697021484	1104.506225585938	-1209.83837890625	167.2628021240234	1084.371459960938	-1232.100708007812	157.3203735351562	1079.302124023438	-1183.094604492188	124.6210632324219	1034.959106445312	-1220.02099609375	97.91523742675781	996.0790405273439	-1218.780395507812	61.78181457519531	996.2386474609376	-1233.983642578125	59.45918273925781	993.2242431640626	-1183.758178710938	14.65888023376465	955.2376708984376	-1213.640625	-60.89491653442383	882.3615112304689	-1241.486450195312	-60.59661102294922	878.1701660156251	-1190.318359375	-93.34611511230469	828.6334838867189	-1219.386352539062	114.6905670166016	578.6350708007814	-1423.307006835938	114.7973709106445	503.9178771972657	-1397.373291015625	153.8313903808594	531.5358886718751	-1413.327392578125	214.0245513916016	306.6475830078126	-1429.9052734375	152.9836120605469	256.1495361328126	-1420.244873046875	201.9770355224609	246.6559448242188	-1420.729125976562	78.01691436767578	69.37306213378915	-1319.12109375	293.9911804199219	47.87594223022469	-1331.635986328125	242.1092987060547	29.49363517761239	-1431.235961914062	98.83264923095703	576.4638061523439	-1013.297973632812	176.2785949707031	574.4656372070314	-992.6361083984375	149.0797729492188	539.3599243164064	-1016.1875	202.6255493164062	326.9278564453126	-1001.4150390625	220.6638793945312	250.6675415039063	-1005.824523925781	176.2717895507812	271.0275268554688	-1013.048034667969	81.60301208496094	63.95719909667976	-1120.687377929688	293.2511291503906	47.44950866699225	-1097.493774414062	234.8475952148438	39.5211029052735	-1000.318298339844	421.0896911621094	1049.474731445312	-1207.943603515625	373.7384643554688	910.8059692382814	-1209.098388671875	366.6539611816406	1115.785278320312	-1378.142578125	347.2621765136719	962.9290771484376	-1473.3916015625	333.0790710449219	902.5177001953126	-1494.802978515625	371.5347900390625	903.5164184570314	-1460.447143554688	337.4183044433594	694.5251464843751	-1502.522338867188	290.2777404785156	632.0828857421876	-1490.120483398438	338.7393493652344	633.1104125976564	-1501.482055664062	364.9567565917969	529.4146728515626	-1503.19677734375	357.0560607910156	523.3880615234376	-1424.633911132812	372.25830078125	1109.50390625	-1045.696533203125	347.8711242675781	963.5908813476564	-957.6848754882811	368.5000610351562	901.4621582031251	-963.6260986328125	327.3674011230469	905.2990722656251	-931.8380126953125	328.8229064941406	684.0764770507814	-931.7686157226562	379.6551818847656	623.0000610351562	-921.1444702148438	330.5459899902344	620.9972534179689	-930.2271728515625	368.02490234375	534.3666381835938	-926.0203857421875	345.3072509765625	512.6000366210939	-1000.662780761719	
919	4.59	354.9288635253906	429.0638427734376	-2228.621826171875	349.8679809570312	422.9661254882812	-206.8009033203125	561.6611938476562	1317.343139648438	-1194.814208984375	512.4646606445312	1346.396606445312	-1132.890991210938	520.7686767578125	1342.549682617188	-1268.116943359375	307.3213195800781	1212.382568359375	-1205.724243164062	187.6285247802734	1107.462280273438	-1209.77685546875	167.1064910888672	1087.273559570312	-1232.040405273438	157.1699066162109	1082.172241210938	-1183.033203125	124.602897644043	1037.729125976562	-1219.963623046875	97.96088409423828	998.7484741210939	-1218.737060546875	61.84690475463867	998.8219604492189	-1233.9462890625	59.51432418823242	995.7946166992189	-1183.719116210938	14.7540111541748	957.7427978515626	-1213.632446289062	-60.33761596679688	884.7885131835939	-1241.50732421875	-60.06906890869141	880.6010131835939	-1190.333984375	-92.76858520507812	831.0471191406251	-1219.420166015625	114.2372436523438	580.3378906250001	-1423.198608398438	113.9023132324219	505.6234436035157	-1397.2314453125	153.1107788085938	532.9783935546876	-1413.180419921875	213.0242462158203	306.9676208496095	-1429.819458007812	152.1500091552734	256.2727050781251	-1420.134033203125	201.1781005859375	246.9131011962891	-1420.648559570312	77.99532318115234	69.37356567382821	-1319.1435546875	293.9834289550781	47.87921142578133	-1331.641723632812	242.1100311279297	29.49808120727548	-1431.233276367188	98.33800506591797	578.1641845703126	-1013.396118164062	175.746826171875	575.6423950195314	-992.6629638671875	148.3412933349609	540.7390136718751	-1016.250732421875	201.6502380371094	327.1423339843751	-1001.378723144531	219.8458709716797	250.9715576171876	-1005.765563964844	175.3922729492188	271.2491455078126	-1013.045349121094	81.58930969238281	63.9544982910157	-1120.671264648438	293.2436828613281	47.45569992065436	-1097.485961914062	234.8498992919922	39.52189254760749	-1000.317565917969	421.0143737792969	1053.082885742188	-1207.877685546875	374.0788269042969	914.2662963867189	-1209.049682617188	366.4012145996094	1119.213623046875	-1378.109985351562	347.1388244628906	966.2218017578126	-1473.40576171875	333.0058898925781	905.8035278320314	-1494.798583984375	371.4943542480469	906.8204345703126	-1460.4462890625	337.4202270507812	697.8026733398439	-1502.501953125	290.2984924316406	635.3443603515626	-1490.11181640625	338.7675476074219	636.3793945312501	-1501.465209960938	365.0202331542969	532.7123413085939	-1503.192626953125	357.1190185546875	526.6483154296876	-1424.631713867188	372.020751953125	1112.90283203125	-1045.576416015625	347.73583984375	966.8316650390626	-957.5750122070311	368.4441223144531	904.7332153320314	-963.5245971679688	327.2618408203125	908.5090942382814	-931.7432861328125	328.8758850097656	687.2800292968751	-931.8053588867188	379.7156372070312	626.19091796875	-921.2195434570312	330.6200866699219	624.1960449218751	-930.2992553710938	368.1359252929688	537.5892333984375	-926.114990234375	345.5555725097656	515.8504028320314	-1000.687561035156	
